<?xml version="1.0" encoding="UTF-8"?>
<svg id="Calque_1" data-name="Calque 1" xmlns="http://www.w3.org/2000/svg" viewBox="0 0 1098.99 300">
  <g>
    <path d="m45.05,259.48c19.82,19.85,43.4,33.41,70.69,40.26.14.03.27.06.41.09l2.04-.46-31.97-73.16,44.89,54.13,21.69-154.79,20.18,154.79,46.81-54.13-33.11,73.12,3.03.68c7.71-1.98,15.35-4.6,22.92-7.89,37.99-16.52,65.42-44.08,81.26-82.49,16.51-40.04,16.13-80.44-1.04-120.01-17.93-41.32-48.88-69.52-91.29-84.93-5.08-1.84-10.38-3.05-15.59-4.56,31.32,22.22,28.36,66.99,5.25,88.51-22.02,20.51-56.33,20.55-78.35-.68-22.3-21.49-25.7-61.29,5.19-86.88-.1-.36-.2-.72-.3-1.08-6.65,2.22-13.44,4.09-19.93,6.72C51.17,25.68,20.43,59.44,6.18,107.64c-8.74,29.54-8.03,59.32.99,88.87,7.38,24.17,20.1,45.15,37.88,62.97Z" style="fill: #fff;"/>
    <path d="m181.06,51.12h0c-13.01,1.9-23.21,12.14-25.06,25.15h0c-.48,3.39-5.36,3.4-5.86.01h0c-1.9-13.01-12.14-23.21-25.15-25.06h0c-3.38-.48-3.39-5.37-.01-5.86h0c13.01-1.9,23.21-12.14,25.06-25.15h0c.48-3.39,5.36-3.4,5.86-.01h0c1.9,13.01,12.14,23.21,25.15,25.06h0c3.38.48,3.39,5.37.01,5.86Z" style="fill: #fff;"/>
  </g>
  <g>
    <g>
      <path d="m927.58,210.99c0,1.41-1.13,2.54-2.53,2.54h-76.04c-1.4,0-2.54-1.12-2.53-2.53.09-28.98.08-65.06,0-93.81,0-1.4,1.13-2.53,2.53-2.53h15.18c1.4,0,2.54,1.12,2.53,2.53-.08,20.3-.06,64.76-.05,75.81,0,1.4,1.13,2.53,2.53,2.53h36.05c1.39,0,2.52-1.12,2.52-2.51,0-22.79,0-53.35,0-75.84,0-1.4,1.13-2.52,2.53-2.52h14.77c1.41,0,2.55,1.14,2.53,2.55l-.02,93.77Z" style="fill: #fff;"/>
      <path d="m954.15,180.01c1.13,0,2.15.75,2.44,1.85,2.7,10.24,9,16.51,22.26,17.36,6.38.34,12.63-.25,18.02-3.94,2.21-1.51,4.35-3.7,5.52-6.07,3.03-6.14.39-12.76-6.34-14.8-5.93-1.8-12.25-2.35-18.41-3.33-7.05-1.13-14.22-1.69-21.17-3.27-15.04-3.42-19-14.44-16.28-28.2,2.25-11.36,9.43-18.97,20.04-22.97,14.16-5.34,28.33-4.91,41.94,2.02,10.14,5.16,15.57,15.48,17.6,26.3.29,1.57-.91,3.02-2.5,3.02h-12.96c-1.07,0-2.01-.66-2.38-1.66-.43-1.19-1.13-2.87-2.09-4.57-1.04-1.96-2.16-3.96-3.65-5.57-7.66-8.26-25.97-9.09-34.24-1.41-1.85,1.72-3.34,4.31-3.96,6.76-1.44,5.71.76,9.47,6.46,10.95,4.52,1.17,9.24,1.54,13.87,2.26,7.83,1.23,15.88,1.67,23.44,3.84,21.58,6.18,26.92,29.95,10.64,45.72-6.36,6.16-14.09,9.51-22.7,10.64-14.93,1.97-29.13.24-40.93-10.25-6.2-5.51-9.28-13.62-10.55-21.72-.24-1.55.94-2.95,2.51-2.95h13.43Z" style="fill: #fff;"/>
      <path d="m1098.99,157.16c-.67,14.32-2.83,29.78-10.22,42.42-6.92,11.84-19.35,17.92-31.6,15.57-8.9-1.71-14.22-7.2-16.26-15.82-.79-3.34-1.13-6.86-1.16-10.3l.02-53.45c0-1.4-1.11-2.53-2.51-2.54-3.09-.01-8.36-.03-11.83-.01-1.41,0-2.55-1.13-2.54-2.54l.04-13.19c0-1.4,1.14-2.53,2.54-2.53h11.72c1.4,0,2.54-1.13,2.54-2.54l-.05-21.62c0-1.4,1.13-2.54,2.53-2.54h14.95c1.4,0,2.54,1.13,2.53,2.54,0,4.87-.02,15.6-.02,21.63,0,1.4,1.13,2.53,2.53,2.53h20.64c1.4,0,2.53,1.13,2.53,2.53v13.24c0,1.4-1.14,2.54-2.54,2.53l-20.67-.03c-1.41,0-2.55,1.13-2.54,2.54.09,15.87,0,34.98.04,50.48.02,11.29,8.17,16.36,18.63,11.64,5.57-2.51,9.23-6.99,12.02-12.21,4.18-7.81,6.02-16.32,7-25.05.12-1.1.24-3.3.24-3.3h1.43Z" style="fill: #fff;"/>
      <path d="m730.25,164.86c-.01,17.26-.04,38.78-.04,46.05,0,1.4,1.13,2.52,2.53,2.52l20.84-.07c11.17-.24,22.48.33,33.49-1.18,19.39-2.67,33.3-13.59,41.04-31.71,6.45-15.1,7.02-30.89,3.99-46.82-4.83-25.42-22.67-42.72-48.34-44.98-16.06-1.41-34.56-.68-50.95-.79-1.41,0-2.54,1.12-2.54,2.53v58.69s-.01,15.77-.01,15.77Zm77.8,8.05c-5.95,14.5-17.44,21.38-32.66,22.32-6.11.38-14.34.12-20.97.15-1.4,0-2.53-1.13-2.53-2.53v-42.23c0-12.72.08-29.17-.03-42.34-.01-1.39,1.1-2.53,2.49-2.55,5.45-.08,18.3-.17,24.02.65,18.8,2.69,29.25,13.11,32.6,31.85,2.1,11.75,1.66,23.49-2.92,34.68Z" style="fill: #fff;"/>
    </g>
    <path d="m668.16,240.65c-4.77-.06-9.54-.08-14.31-.08s-9.7.03-14.55.08h-.55c-1.15,0-2.24-.06-2.99-.83-.65-.67-.9-1.69-.84-3.44h0s.07-7.02.03-10.63c-.04-1.32.23-2.23.85-2.87.81-.83,2.01-.93,2.85-.93l17.73.06c2.14-.02,2.52-.03,3.62-2.74,2.27-7.3,2.21-12.55-.21-18.65-8.17-20.61-33.52-86.02-33.52-86.02l18.02-.04c2.51,0,3.94,1.03,4.79,3.43,6.51,18.45,20.46,55.84,24.04,65.89,3.59-10.25,17.73-48.93,23.48-65.97.81-2.39,2.09-3.37,4.41-3.37l18.41.06s-36.06,95.17-46.13,122.3c-.72,1.94-1.83,3.73-5.02,3.73h-.11Z" style="fill: #fff;"/>
    <path d="m616.14,164c0,14.88,0,29.75,0,44.63q0,4.88-5.04,4.88c-3.91,0-7.83-.08-11.74.02-2.26.06-3.15-.7-3.14-3.09.06-30.76.06-88.39,0-119.15,0-2.69,1.07-3.42,3.6-3.43,4.41-.02,8.36-.02,12.75,0,2.76-.11,3.66.82,3.63,3.63-.12,15.21-.06,57.29-.06,72.51Z" style="fill: #fff;"/>
    <path d="m503.02,117.21c0-1.41,1.14-2.54,2.55-2.54h76.04c1.4,0,2.54,1.12,2.53,2.53-.09,28.98-.08,65.06,0,93.81,0,1.4-1.13,2.53-2.53,2.53h-15.18c-1.4,0-2.54-1.12-2.53-2.53.08-20.3.06-64.76.05-75.81,0-1.4-1.13-2.53-2.53-2.53h-36.05c-1.39,0-2.52,1.12-2.52,2.51,0,22.79,0,53.35,0,75.84,0,1.4-1.13,2.52-2.53,2.52h-14.77c-1.41,0-2.55-1.14-2.53-2.55v-93.77Z" style="fill: #fff;"/>
    <path d="m428.82,214.44c-35.13-.06-62.68-27.86-62.55-63.14.12-34.94,27.87-62.32,63.08-62.24,35.02.08,62.47,27.55,62.41,62.44-.07,35.69-27.36,62.99-62.93,62.93Zm-41.34-62.83c.1,24.19,18.6,42.86,42.33,42.71,22.49-.14,41.17-19.65,41.03-42.86-.14-23.47-18.9-42.48-41.82-42.37-23.14.11-41.64,19.04-41.54,42.52Z" style="fill: #fff;"/>
  </g>
</svg>